<svg width="80" height="80" viewBox="0 0 80 80" fill="none" xmlns="http://www.w3.org/2000/svg">
<circle cx="16" cy="16" r="16" transform="matrix(-1 0 0 1 57 24)" fill="#DFACFF"/>
<circle cx="41" cy="40" r="37.125" stroke="black" stroke-width="1.75"/>
<path d="M39.9551 33.2227C43.5987 33.2228 46.5527 36.1767 46.5527 39.8203C46.5526 43.4638 43.5986 46.4179 39.9551 46.418C36.3115 46.418 33.3575 43.4639 33.3574 39.8203C33.3574 36.1767 36.3114 33.2227 39.9551 33.2227Z" stroke="#141414" stroke-width="1.5"/>
<path d="M39.9561 14.75C42.3822 14.7502 44.3486 16.7174 44.3486 19.1436C44.3484 21.5696 42.3821 23.536 39.9561 23.5361C37.5299 23.5361 35.5627 21.5697 35.5625 19.1436C35.5625 16.7173 37.5297 14.75 39.9561 14.75Z" stroke="#141414" stroke-width="1.5"/>
<path d="M23.0557 23.5674C25.4818 23.5676 27.4482 25.5348 27.4482 27.9609C27.448 30.387 25.4817 32.3533 23.0557 32.3535C20.6295 32.3535 18.6623 30.3871 18.6621 27.9609C18.6621 25.5346 20.6293 23.5674 23.0557 23.5674Z" stroke="#141414" stroke-width="1.5"/>
<path d="M56.8564 23.5674C59.2826 23.5676 61.249 25.5348 61.249 27.9609C61.2488 30.387 59.2825 32.3533 56.8564 32.3535C54.4302 32.3535 52.4631 30.3871 52.4629 27.9609C52.4629 25.5346 54.4301 23.5674 56.8564 23.5674Z" stroke="#141414" stroke-width="1.5"/>
<path d="M23.0557 47.0811C25.4818 47.0812 27.4482 49.0484 27.4482 51.4746C27.448 53.9006 25.4817 55.867 23.0557 55.8672C20.6295 55.8672 18.6623 53.9007 18.6621 51.4746C18.6621 49.0483 20.6293 47.0811 23.0557 47.0811Z" stroke="#141414" stroke-width="1.5"/>
<path d="M56.8564 47.0811C59.2826 47.0812 61.249 49.0484 61.249 51.4746C61.2488 53.9006 59.2825 55.867 56.8564 55.8672C54.4302 55.8672 52.4631 53.9007 52.4629 51.4746C52.4629 49.0483 54.4301 47.0811 56.8564 47.0811Z" stroke="#141414" stroke-width="1.5"/>
<path d="M39.957 23.5527V33.6719" stroke="#141414" stroke-width="1.5"/>
<path d="M39.9561 65.2529C42.3822 65.2528 44.3486 63.2856 44.3486 60.8594C44.3484 58.4334 42.3821 56.467 39.9561 56.4668C37.5299 56.4668 35.5627 58.4332 35.5625 60.8594C35.5625 63.2857 37.5297 65.2529 39.9561 65.2529Z" stroke="#141414" stroke-width="1.5"/>
<path d="M39.957 56.4512V46.332" stroke="#141414" stroke-width="1.5"/>
<path d="M26.4707 30.5801L34.7657 36.3759" stroke="#141414" stroke-width="1.5"/>
<path d="M53.4414 49.4219L45.1464 43.626" stroke="#141414" stroke-width="1.5"/>
<path d="M53.4414 30.5801L45.1464 36.3759" stroke="#141414" stroke-width="1.5"/>
<path d="M26.4707 49.4219L34.7657 43.626" stroke="#141414" stroke-width="1.5"/>
</svg>
