<svg width="80" height="80" viewBox="0 0 80 80" fill="none" xmlns="http://www.w3.org/2000/svg">
<circle cx="16" cy="16" r="16" transform="matrix(-1 0 0 1 57 25)" fill="#DFACFF"/>
<circle cx="41" cy="41" r="37.125" stroke="black" stroke-width="1.75"/>
<path d="M29.769 56C29.021 56 28.3725 55.7255 27.8235 55.1765C27.2745 54.6275 27 53.979 27 53.231V34.9155C27 34.1475 27.2745 33.494 27.8235 32.955C28.3725 32.4157 29.021 32.146 29.769 32.146H33.231V27.769C33.231 25.6047 33.9855 23.7688 35.4945 22.2615C37.0035 20.7538 38.8413 20 41.008 20C43.1743 20 45.0095 20.7538 46.5135 22.2615C48.0172 23.7688 48.769 25.6047 48.769 27.769V32.146H52.231C52.979 32.146 53.6275 32.4157 54.1765 32.955C54.7255 33.494 55 34.1475 55 34.9155V53.231C55 53.979 54.7255 54.6275 54.1765 55.1765C53.6275 55.7255 52.979 56 52.231 56H29.769ZM29.769 54.4615H52.231C52.5897 54.4615 52.8845 54.3462 53.1155 54.1155C53.3462 53.8845 53.4615 53.5897 53.4615 53.231V34.9155C53.4615 34.5565 53.3462 34.2617 53.1155 34.031C52.8845 33.8 52.5897 33.6845 52.231 33.6845H29.769C29.4103 33.6845 29.1155 33.8 28.8845 34.031C28.6538 34.2617 28.5385 34.5565 28.5385 34.9155V53.231C28.5385 53.5897 28.6538 53.8845 28.8845 54.1155C29.1155 54.3462 29.4103 54.4615 29.769 54.4615ZM41.0085 47C41.8132 47 42.5007 46.7162 43.071 46.1485C43.6417 45.5808 43.927 44.8967 43.927 44.096C43.927 43.327 43.639 42.643 43.063 42.044C42.4867 41.4453 41.7962 41.146 40.9915 41.146C40.1868 41.146 39.4993 41.4453 38.929 42.044C38.3583 42.643 38.073 43.3353 38.073 44.121C38.073 44.907 38.361 45.5833 38.937 46.15C39.5133 46.7167 40.2038 47 41.0085 47ZM34.769 32.146H47.231V27.769C47.231 26.0383 46.626 24.5673 45.416 23.356C44.206 22.1443 42.7367 21.5385 41.008 21.5385C39.2797 21.5385 37.8078 22.1443 36.5925 23.356C35.3768 24.5673 34.769 26.0383 34.769 27.769V32.146Z" fill="#141414"/>
</svg>
